HIERARCHY
ROOT Hips
{
	OFFSET 0.000000 0.000000 0.053700
	CHANNELS 6 Xposition Yposition Zposition Xrotation Yrotation Zrotation
	JOINT Spine
	{
		OFFSET 0.000000 -0.000000 0.071600
		CHANNELS 6 Xposition Yposition Zposition Xrotation Yrotation Zrotation
		JOINT Spine1
		{
			OFFSET 0.000000 -0.000000 0.081800
			CHANNELS 3 Xrotation Yrotation Zrotation
			JOINT Spine2
			{
				OFFSET 0.000000 -0.000000 0.081800
				CHANNELS 3 Xrotation Yrotation Zrotation
				JOINT Neck
				{
					OFFSET 0.000000 -0.000000 0.071600
					CHANNELS 6 Xposition Yposition Zposition Xrotation Yrotation Zrotation
					JOINT Head
					{
						OFFSET 0.000000 -0.000000 0.051100
						CHANNELS 3 Xrotation Yrotation Zrotation
						End Site
						{
							OFFSET 0.000000 -0.000000 0.051100
						}
					}
				}
				JOINT LeftShoulder
				{
					OFFSET 0.024900 -0.000000 0.061300
					CHANNELS 6 Xposition Yposition Zposition Xrotation Yrotation Zrotation
					JOINT LeftArm
					{
						OFFSET 0.049900 -0.000000 0.000000
						CHANNELS 3 Xrotation Yrotation Zrotation
						JOINT LeftForeArm
						{
							OFFSET 0.099700 -0.000000 0.000000
							CHANNELS 3 Xrotation Yrotation Zrotation
							JOINT LeftHand
							{
								OFFSET 0.099700 -0.000000 0.000000
								CHANNELS 3 Xrotation Yrotation Zrotation
								End Site
								{
									OFFSET 0.099700 -0.000000 0.000000
								}
							}
						}
					}
				}
				JOINT RightShoulder
				{
					OFFSET -0.024900 -0.000000 0.061300
					CHANNELS 6 Xposition Yposition Zposition Xrotation Yrotation Zrotation
					JOINT RightArm
					{
						OFFSET -0.049900 -0.000000 0.000000
						CHANNELS 3 Xrotation Yrotation Zrotation
						JOINT RightForeArm
						{
							OFFSET -0.099700 -0.000000 0.000000
							CHANNELS 3 Xrotation Yrotation Zrotation
							JOINT RightHand
							{
								OFFSET -0.099700 -0.000000 0.000000
								CHANNELS 3 Xrotation Yrotation Zrotation
								End Site
								{
									OFFSET -0.099700 -0.000000 0.000000
								}
							}
						}
					}
				}
			}
		}
	}
	JOINT LeftUpLeg
	{
		OFFSET 0.049900 0.000000 0.000000
		CHANNELS 6 Xposition Yposition Zposition Xrotation Yrotation Zrotation
		JOINT LeftLeg
		{
			OFFSET 0.000000 0.000000 -0.255600
			CHANNELS 3 Xrotation Yrotation Zrotation
			JOINT LeftFoot
			{
				OFFSET 0.000000 0.000000 -0.255600
				CHANNELS 3 Xrotation Yrotation Zrotation
				JOINT LeftToeBase
				{
					OFFSET 0.000000 0.019731 -0.051125
					CHANNELS 3 Xrotation Yrotation Zrotation
					End Site
					{
						OFFSET 0.000000 0.054800 0.000000
					}
				}
			}
		}
	}
	JOINT RightUpLeg
	{
		OFFSET -0.049900 0.000000 0.000000
		CHANNELS 6 Xposition Yposition Zposition Xrotation Yrotation Zrotation
		JOINT RightLeg
		{
			OFFSET 0.000000 0.000000 -0.255600
			CHANNELS 3 Xrotation Yrotation Zrotation
			JOINT RightFoot
			{
				OFFSET 0.000000 0.000000 -0.255600
				CHANNELS 3 Xrotation Yrotation Zrotation
				JOINT RightToeBase
				{
					OFFSET 0.000000 0.019731 -0.051125
					CHANNELS 3 Xrotation Yrotation Zrotation
					End Site
					{
						OFFSET 0.000000 0.054800 0.000000
					}
				}
			}
		}
	}
}
MOTION
Frames: 4
Frame Time: 0.033333
0.001712 -0.021720 0.215420 -114.891678 -3.279063 5.585301 0.000000 0.000000 0.071600 54.018771 1.586942 -8.212627 14.323433 -2.902142 -2.543715 14.433428 -3.000393 -1.534804 -0.000000 -0.000000 0.071600 8.085867 -1.364748 0.157459 -0.000001 0.000000 -0.000000 0.024900 0.000000 0.061300 5.846967 0.614265 -2.815432 58.702792 106.971076 -23.515610 0.000002 0.000006 -34.433203 0.000001 0.000000 0.000001 -0.024900 0.000000 0.061300 0.566685 1.614734 -0.020119 95.956030 -100.097276 65.978166 0.000004 0.000017 41.605944 0.000000 0.000001 -0.000000 0.049900 0.000000 0.000000 -55.538222 -56.793187 7.754009 23.763878 -3.201736 -3.619099 26.927980 1.091274 -0.036620 0.000000 -0.000000 -0.000000 -0.049900 0.000000 0.000000 -41.962995 48.017152 -7.082340 8.290395 4.905835 -9.937661 -12.848913 -10.755127 -18.508411 -0.000000 -0.000001 -0.000002 
0.022260 -0.010848 0.214968 -116.969203 -5.947653 -6.730096 -0.000000 0.000000 0.071600 57.937066 6.891526 -6.630255 13.934699 -2.337185 -1.042941 13.972507 -2.266147 -0.013534 -0.000000 -0.000000 0.071600 7.636956 -2.569432 -0.494601 0.000001 0.000001 0.000000 0.024900 -0.000000 0.061300 5.892411 2.176383 -8.144775 78.146803 117.209051 -38.688657 0.000006 0.000004 -41.127783 -0.000001 -0.000001 0.000001 -0.024900 0.000000 0.061300 3.399619 0.481043 -1.278167 106.345916 -106.184354 80.439814 0.000016 -0.000009 43.482688 0.000003 0.000000 -0.000002 0.049900 0.000000 -0.000000 -70.500188 -48.192329 -3.319826 40.486469 -0.412740 -2.938580 16.296331 3.366299 -1.501406 0.000003 -0.000001 0.000001 -0.049900 0.000000 -0.000000 -30.558283 42.977422 -16.081363 15.862049 8.556368 -9.818606 -9.585117 -11.677360 -13.643950 -0.000000 -0.000003 0.000000 
0.044611 0.005979 0.214785 -116.203552 -7.910970 -18.815575 0.000000 -0.000000 0.071600 60.548070 9.831489 -4.971693 13.076427 -1.739126 0.371903 13.060799 -1.499467 1.362707 -0.000000 0.000000 0.071600 7.444023 -3.090393 -1.082697 0.000000 0.000001 0.000001 0.024900 -0.000000 0.061300 5.475616 3.725089 -15.811283 78.000412 118.718455 -37.953326 0.000007 0.000009 -45.823749 -0.000000 -0.000000 -0.000000 -0.024900 0.000000 0.061300 6.246783 -1.134303 -4.207839 112.959048 -110.026390 94.065556 -0.000013 0.000001 42.708500 0.000000 -0.000000 0.000003 0.049900 0.000000 0.000000 -73.152958 -37.051775 -5.157832 43.174258 -0.505611 -0.429991 10.528626 2.827307 -0.861217 -0.000001 0.000003 -0.000000 -0.049900 0.000000 0.000000 -19.480886 38.343487 -24.046796 23.519734 9.099281 -4.087326 -6.264044 -6.467876 2.330601 0.000000 -0.000001 0.000003 
0.065025 0.031017 0.215314 -111.192659 -10.247226 -29.974118 -0.000000 -0.000000 0.071600 61.016095 10.392004 -3.904084 11.950364 -1.461792 1.430350 11.916839 -1.075461 2.432033 0.000000 -0.000000 0.071600 7.410544 -2.831043 -1.551641 -0.000001 -0.000001 -0.000000 0.024900 -0.000000 0.061300 5.032927 7.540923 -23.890062 103.036436 127.172248 -61.109395 0.000012 0.000007 -70.365265 -0.000001 0.000001 0.000000 -0.024900 -0.000000 0.061300 8.165595 -3.495352 -5.741633 122.220785 -113.916736 112.101231 -0.000011 0.000006 40.727950 0.000000 -0.000001 0.000002 0.049900 0.000000 -0.000000 -71.235834 -27.802811 -6.040962 35.388880 -3.297297 3.435441 15.646140 2.595451 -0.398245 -0.000000 -0.000001 -0.000001 -0.049900 0.000000 0.000000 -18.181788 35.227503 -23.535493 41.118552 8.169899 -4.833608 -10.971376 -3.094733 8.950312 0.000001 0.000000 0.000000 
